<?xml version="1.0" standalone="no"?>
<!DOCTYPE svg PUBLIC "-//W3C//DTD SVG 20010904//EN"
 "http://www.w3.org/TR/2001/REC-SVG-20010904/DTD/svg10.dtd">
<svg version="1.0" xmlns="http://www.w3.org/2000/svg"
 width="100.000000pt" height="100.000000pt" viewBox="0 0 100.000000 100.000000"
 preserveAspectRatio="xMidYMid meet">
<metadata>
Created by potrace 1.11, written by Peter Selinger 2001-2013
</metadata>
<g transform="translate(0.000000,100.000000) scale(0.100000,-0.100000)"
fill="#000000" stroke="none">
<path d="M0 500 l0 -500 500 0 500 0 0 500 0 500 -500 0 -500 0 0 -500z m900
415 c36 -43 -63 -68 -374 -95 -132 -11 -242 -22 -244 -25 -7 -7 45 -6 295 5
215 8 270 4 331 -29 44 -23 49 -54 57 -318 4 -168 4 -173 -18 -197 -28 -32
-126 -72 -208 -85 -195 -32 -291 -43 -448 -51 -146 -8 -178 -7 -202 6 -27 14
-39 47 -21 58 5 3 78 6 163 7 85 1 181 5 214 10 33 4 114 15 180 23 114 15
225 45 253 69 10 8 13 54 11 209 -2 109 -6 203 -9 209 -9 13 -195 17 -365 7
-77 -4 -190 -9 -252 -9 -120 -2 -148 7 -201 63 -18 20 -20 27 -9 39 24 30 121
57 242 69 66 7 123 14 127 16 4 3 81 7 170 11 90 3 170 9 178 14 26 15 116 10
130 -6z"/>
</g>
</svg>
