<?xml version="1.0" encoding="utf-8"?>
<!-- Generator: Adobe Illustrator 21.0.2, SVG Export Plug-In . SVG Version: 6.00 Build 0)  -->
<svg version="1.1" id="Layer_1" xmlns="http://www.w3.org/2000/svg" xmlns:xlink="http://www.w3.org/1999/xlink" x="0px" y="0px"
	 viewBox="0 0 512 512" style="enable-background:new 0 0 512 512;" xml:space="preserve">
<style type="text/css">
	.st0{fill:#707070;}
</style>
<g>
	<g>
		<g>
			<path class="st0" d="M500.4,69.8H11.6C5.2,69.8,0,75,0,81.5v349.1c0,6.4,5.2,11.6,11.6,11.6h488.7c6.4,0,11.6-5.2,11.6-11.6V81.5
				C512,75,506.8,69.8,500.4,69.8z M488.7,390.8L344.6,246.6l-16.5,16.5L484,418.9H28l155.8-155.8l-16.5-16.5L23.3,390.8V93.1h465.5
				V390.8z"/>
		</g>
	</g>
	<g>
		<g>
			<path class="st0" d="M465.2,93.1L256,302.3L46.8,93.1H23.3v9.4L247.8,327c4.5,4.5,11.9,4.5,16.5,0l224.5-224.5v-9.4H465.2z"/>
		</g>
	</g>
</g>
</svg>
